<svg xmlns="http://www.w3.org/2000/svg" xmlns:svg="http://www.w3.org/2000/svg" style="clip-rule:evenodd;fill-rule:evenodd;stroke-linecap:round;stroke-linejoin:round;stroke-miterlimit:1" id="svg2" width="71.498" height="23.887" version="1.1" xml:space="preserve"><metadata id="metadata56"/><g id="g4242" transform="translate(-3.71284,-0.18012)"><path id="path46" d="m 10.4064,22.5387 -0.3276,0 0,1.4283 -1.65866,0 -0.31673,-2.9188 C 5.488,18.886 3.81284,15.6275 3.81284,12.0084 c 0,-2.71119 0.9401,-5.22001 2.5246,-7.23473 L 6.0704,2.31269 l 2.90602,0 C 10.8759,1.02464 13.1284,0.28012 15.5411,0.28012 c 2.4127,0 4.6652,0.74452 6.5647,2.03257 l 2.8545,0 -0.2609,2.40411 c 1.6102,2.01928 2.57,4.55213 2.57,7.2916 0,3.6568 -1.7103,6.9454 -4.3471,9.0859 l -0.3117,2.8727 -1.6586,0 0,-1.4283 -0.2761,0 c -1.5432,0.7637 -3.2923,1.1979 -5.1348,1.1979 -1.8425,0 -3.5916,-0.4342 -5.1347,-1.1979 z" style="fill:none;stroke:#000;stroke-width:.2;stroke-miterlimit:1;stroke-dasharray:none"/><g style="stroke-width:.2;stroke-miterlimit:1;stroke-dasharray:none" id="g48"><path style="fill:none;stroke:#000;stroke-width:.2;stroke-miterlimit:1;stroke-dasharray:none" id="path50" d="m 15.4462,11.8498 c 3.4224,0 6.1968,2.104 6.1968,4.6994 0,2.5955 -2.7744,4.6995 -6.1968,4.6995 -3.4224,0 -6.19678,-2.104 -6.19678,-4.6995 0,-2.5954 2.77438,-4.6994 6.19678,-4.6994 z m -1.9811,2.9947 c 0.5725,0 1.0366,0.8148 1.0366,1.8199 0,1.0051 -0.4641,1.8199 -1.0366,1.8199 -0.5725,0 -1.0366,-0.8148 -1.0366,-1.8199 0,-1.0051 0.4641,-1.8199 1.0366,-1.8199 z m 4.0544,0 c 0.5726,0 1.0367,0.8148 1.0367,1.8199 0,1.0051 -0.4641,1.8199 -1.0367,1.8199 -0.5725,0 -1.0366,-0.8148 -1.0366,-1.8199 0,-1.0051 0.4641,-1.8199 1.0366,-1.8199 z"/></g></g><g id="g20" transform="matrix(0.34650485,0,0,0.34650485,30.267064,8.7780735)" style="fill:#000;fill-opacity:.20408164"><text style="font-style:normal;font-variant:normal;font-weight:300;font-stretch:normal;font-size:40px;line-height:125%;font-family:Roboto;-inkscape-font-specification:'Roboto Light';letter-spacing:0;word-spacing:0;fill:#000;fill-opacity:.20408164;stroke:none;stroke-width:1px;stroke-linecap:butt;stroke-linejoin:miter;stroke-opacity:1" id="text4234" x="-7.285" y="42.142" xml:space="preserve"><tspan id="tspan4236" x="-7.285" y="42.142">toolkit</tspan></text></g><text style="font-style:normal;font-variant:normal;font-weight:700;font-stretch:normal;font-size:15.76700211px;line-height:125%;font-family:'Roboto Slab';-inkscape-font-specification:'Roboto Slab Bold';letter-spacing:0;word-spacing:0;fill:#000;fill-opacity:.10204079;stroke:none;stroke-width:1px;stroke-linecap:butt;stroke-linejoin:miter;stroke-opacity:1" id="text4238" x="27.569" y="11.574" xml:space="preserve"><tspan id="tspan4240" x="27.569" y="11.574">KIRKI</tspan></text></svg>